<svg xmlns="http://www.w3.org/2000/svg" viewBox="0 0 16 16" width="64" height="64" shape-rendering="crispEdges"><rect x="1" y="3" width="10" height="12" fill="#7A4010"></rect><rect x="1" y="3" width="2" height="12" fill="#5A2C08"></rect><rect x="3" y="4" width="7" height="10" fill="#F5ECD0"></rect><rect x="4" y="6" width="5" height="1" fill="#CCC0A0"></rect><rect x="4" y="8" width="5" height="1" fill="#CCC0A0"></rect><rect x="4" y="10" width="5" height="1" fill="#CCC0A0"></rect><rect x="4" y="12" width="3" height="1" fill="#CCC0A0"></rect><rect x="9" y="1" width="1" height="1" fill="#F5F5DC"></rect><rect x="10" y="2" width="1" height="1" fill="#E8E8C0"></rect><rect x="11" y="3" width="1" height="1" fill="#D8D890"></rect><rect x="12" y="4" width="1" height="1" fill="#C8C870"></rect><rect x="12" y="5" width="1" height="2" fill="#B8B860"></rect><rect x="11" y="5" width="1" height="1" fill="#E8E8C0"></rect><rect x="13" y="3" width="1" height="1" fill="#F0F0D0"></rect><rect x="13" y="4" width="1" height="3" fill="#E0E0B0"></rect><rect x="12" y="7" width="1" height="2" fill="#A0A040"></rect><rect x="11" y="9" width="1" height="1" fill="#808000"></rect><rect x="11" y="10" width="1" height="1" fill="#404000"></rect></svg>
