<svg xmlns="http://www.w3.org/2000/svg" viewBox="0 0 16 16" width="64" height="64" shape-rendering="crispEdges"><g><rect x="10" y="5" width="4" height="1" fill="#54545F"></rect><rect x="10" y="8" width="4" height="1" fill="#54545F"></rect><rect x="10" y="6" width="1" height="2" fill="#54545F"></rect><rect x="13" y="6" width="1" height="2" fill="#54545F"></rect></g><g><rect x="5" y="0" width="4" height="1" fill="#54545F"></rect><rect x="5" y="3" width="4" height="1" fill="#54545F"></rect><rect x="5" y="1" width="1" height="2" fill="#54545F"></rect><rect x="8" y="1" width="1" height="2" fill="#54545F"></rect></g><g><rect x="10" y="0" width="4" height="1" fill="#54545F"></rect><rect x="10" y="3" width="4" height="1" fill="#54545F"></rect><rect x="10" y="1" width="1" height="2" fill="#54545F"></rect><rect x="13" y="1" width="1" height="2" fill="#54545F"></rect></g><g><rect x="0" y="10" width="4" height="1" fill="#7BC142"></rect><rect x="0" y="11" width="4" height="2" fill="#8B5A2B"></rect><rect x="0" y="13" width="4" height="1" fill="#6B4423"></rect></g><g><rect x="5" y="10" width="4" height="1" fill="#7BC142"></rect><rect x="5" y="11" width="4" height="2" fill="#8B5A2B"></rect><rect x="5" y="13" width="4" height="1" fill="#6B4423"></rect></g><g><rect x="10" y="10" width="4" height="1" fill="#7BC142"></rect><rect x="10" y="11" width="4" height="2" fill="#8B5A2B"></rect><rect x="10" y="13" width="4" height="1" fill="#6B4423"></rect></g><g><rect x="0" y="5" width="4" height="1" fill="#7BC142"></rect><rect x="0" y="6" width="4" height="2" fill="#8B5A2B"></rect><rect x="0" y="8" width="4" height="1" fill="#6B4423"></rect></g><g><rect x="5" y="5" width="4" height="1" fill="#7BC142"></rect><rect x="5" y="6" width="4" height="2" fill="#8B5A2B"></rect><rect x="5" y="8" width="4" height="1" fill="#6B4423"></rect></g><g><rect x="0" y="0" width="4" height="1" fill="#7BC142"></rect><rect x="0" y="1" width="4" height="2" fill="#8B5A2B"></rect><rect x="0" y="3" width="4" height="1" fill="#6B4423"></rect></g></svg>
