<svg xmlns="http://www.w3.org/2000/svg" viewBox="0 0 16 16" width="64" height="64" shape-rendering="crispEdges"><rect x="3" y="3" width="9" height="6" fill="#2B2B33"></rect><rect x="3" y="3" width="9" height="1" fill="#3C3C46"></rect><rect x="2" y="4" width="1" height="4" fill="#23232A"></rect><rect x="1" y="6" width="3" height="3" fill="#2B2B33"></rect><rect x="0" y="7" width="2" height="1" fill="#23232A"></rect><rect x="9" y="0" width="2" height="3" fill="#4A4A55"></rect><rect x="11" y="1" width="2" height="2" fill="#4A4A55"></rect><rect x="12" y="0" width="1" height="1" fill="#5A5A66"></rect><rect x="2" y="9" width="8" height="2" fill="#23232A"></rect><rect x="1" y="10" width="3" height="1" fill="#23232A"></rect><rect x="7" y="5" width="2" height="2" fill="#C060FF"></rect><rect x="7" y="5" width="1" height="1" fill="#E8B0FF"></rect><rect x="2" y="6" width="1" height="1" fill="#000000"></rect><rect x="3" y="11" width="1" height="1" fill="#DDDDDD"></rect><rect x="6" y="11" width="1" height="1" fill="#DDDDDD"></rect></svg>
