<svg xmlns="http://www.w3.org/2000/svg" viewBox="0 0 16 16" width="64" height="64" shape-rendering="crispEdges"><rect x="7" y="2" width="2" height="1" fill="#8B3A2E"></rect><rect x="6" y="3" width="4" height="1" fill="#A84534"></rect><rect x="5" y="4" width="6" height="1" fill="#A84534"></rect><rect x="4" y="5" width="8" height="1" fill="#A84534"></rect><rect x="6" y="4" width="2" height="1" fill="#C05446"></rect><rect x="5" y="5" width="3" height="1" fill="#C05446"></rect><rect x="3" y="6" width="10" height="1" fill="#8B3A2E"></rect><rect x="4" y="7" width="8" height="7" fill="#C8A06A"></rect><rect x="4" y="7" width="1" height="7" fill="#A8834F"></rect><rect x="11" y="7" width="1" height="7" fill="#A8834F"></rect><rect x="5" y="8" width="2" height="2" fill="#6FC5E8"></rect><rect x="9" y="8" width="2" height="2" fill="#6FC5E8"></rect><rect x="7" y="11" width="2" height="3" fill="#6B4423"></rect><rect x="8" y="12" width="1" height="1" fill="#CDA040"></rect><rect x="3" y="14" width="10" height="1" fill="#7A7A7A"></rect></svg>
